<?xml version="1.0" encoding="utf-8"?>
<svg xmlns="http://www.w3.org/2000/svg"
	xmlns:xlink="http://www.w3.org/1999/xlink"
	width="15px" height="26px">
<path fill="rgb(65,65,65)" fill-rule="evenodd" d="M 14.46 14.28C 14.46 14.28 3.14 25.46 3.14 25.46 2.42 26.17 1.25 26.17 0.53 25.46-0.19 24.75-0.19 23.6 0.53 22.89 0.53 22.89 10.55 13 10.55 13 10.55 13 0.53 3.1 0.53 3.1-0.19 2.39-0.19 1.24 0.53 0.53 1.25-0.18 2.42-0.18 3.14 0.53 3.14 0.53 14.46 11.71 14.46 11.71 14.82 12.06 15 12.53 15 13 15 13.46 14.82 13.93 14.46 14.28Z"/>
</svg>