<?xml version="1.0" encoding="utf-8"?>
<svg xmlns="http://www.w3.org/2000/svg"
	xmlns:xlink="http://www.w3.org/1999/xlink"
	width="17px" height="30px">
<path fill="rgb(255,255,255)" fill-rule="evenodd" d="M 16.39 16.51C 16.39 16.51 3.58 29.41 3.58 29.41 2.77 30.23 1.45 30.23 0.63 29.41-0.18 28.59-0.18 27.26 0.63 26.44 0.63 26.44 11.96 15.03 11.96 15.03 11.96 15.03 0.63 3.61 0.63 3.61-0.18 2.79-0.18 1.46 0.63 0.64 1.45-0.18 2.77-0.18 3.58 0.64 3.58 0.64 16.39 13.54 16.39 13.54 16.8 13.95 17 14.49 17 15.03 17 15.56 16.8 16.1 16.39 16.51Z"/>
</svg>