<?xml version="1.0" encoding="utf-8"?>
<svg xmlns="http://www.w3.org/2000/svg"
	xmlns:xlink="http://www.w3.org/1999/xlink"
	width="17px" height="30px">
<path fill="rgb(65,65,65)" fill-rule="evenodd" d="M 0.61 13.52C 0.61 13.52 13.44 0.62 13.44 0.62 14.26-0.2 15.58-0.2 16.4 0.62 17.21 1.44 17.21 2.77 16.4 3.59 16.4 3.59 5.04 15.01 5.04 15.01 5.04 15.01 16.4 26.42 16.4 26.42 17.21 27.24 17.21 28.57 16.4 29.39 15.58 30.21 14.26 30.21 13.44 29.39 13.44 29.39 0.61 16.49 0.61 16.49 0.2 16.08-0 15.54-0 15.01-0 14.47 0.2 13.93 0.61 13.52Z"/>
</svg>