<?xml version="1.0" encoding="utf-8"?>
<svg xmlns="http://www.w3.org/2000/svg"
	xmlns:xlink="http://www.w3.org/1999/xlink"
	width="15px" height="14px">
<path fill="rgb(255,255,255)" fill-rule="evenodd" d="M 9.86 7C 9.86 7 14 3.15 14 3.15 14.65 2.54 14.65 1.56 14 0.95 13.35 0.34 12.29 0.34 11.63 0.95 11.63 0.95 7.5 4.79 7.5 4.79 7.5 4.79 3.36 0.95 3.36 0.95 2.71 0.34 1.64 0.34 0.99 0.95 0.34 1.56 0.34 2.54 0.99 3.15 0.99 3.15 5.13 7 5.13 7 5.13 7 0.99 10.84 0.99 10.84 0.34 11.45 0.34 12.44 0.99 13.04 1.32 13.35 1.75 13.5 2.18 13.5 2.6 13.5 3.03 13.35 3.36 13.04 3.36 13.04 7.5 9.2 7.5 9.2 7.5 9.2 11.63 13.04 11.63 13.04 11.96 13.35 12.39 13.5 12.82 13.5 13.24 13.5 13.67 13.35 14 13.04 14.65 12.44 14.65 11.45 14 10.84 14 10.84 9.86 7 9.86 7Z"/>
</svg>