<?xml version="1.0" encoding="utf-8"?>
<svg xmlns="http://www.w3.org/2000/svg"
	xmlns:xlink="http://www.w3.org/1999/xlink"
	width="25px" height="25px">
<path fill="rgb(255,255,255)" fill-rule="evenodd" d="M 12.5 25C 5.61 25-0 19.39-0 12.5-0 5.61 5.61-0 12.5-0 19.39-0 25 5.61 25 12.5 25 19.39 19.39 25 12.5 25ZM 12.5 2.66C 7.07 2.66 2.66 7.07 2.66 12.5 2.66 17.93 7.07 22.34 12.5 22.34 17.93 22.34 22.34 17.93 22.34 12.5 22.34 7.07 17.93 2.66 12.5 2.66ZM 19.01 14.17C 19.01 14.17 12.37 14.17 12.37 14.17 11.8 14.17 11.34 13.71 11.34 13.14 11.34 13.14 11.34 5.36 11.34 5.36 11.34 4.79 11.8 4.33 12.37 4.33 12.94 4.33 13.4 4.79 13.4 5.36 13.4 5.36 13.4 12.11 13.4 12.11 13.4 12.11 19.01 12.11 19.01 12.11 19.58 12.11 20.04 12.57 20.04 13.14 20.04 13.71 19.58 14.17 19.01 14.17Z"/>
</svg>