<?xml version="1.0" encoding="utf-8"?>
<svg xmlns="http://www.w3.org/2000/svg"
	xmlns:xlink="http://www.w3.org/1999/xlink"
	width="63px" height="51px">
<path fill="rgb(33,33,33)" fill-rule="evenodd" d="M 54.68 18.95C 55.02 20.5 55.22 22.09 55.22 23.72 55.22 36.34 44.47 46.85 30.31 49.11 33.3 50.32 36.66 51.02 40.24 51.02 43.6 51.02 46.79 50.4 49.66 49.33 53.3 50.56 57.27 50.88 60.56 50.88 58.85 48.84 57.66 46.84 56.82 45.08 60.46 41.85 62.7 37.56 62.7 32.84 62.7 27.26 59.58 22.28 54.68 18.95ZM 2.79 45.58C 3.13 46.22 3.81 46.63 4.53 46.63 4.53 46.63 4.63 46.63 4.63 46.63 6.7 46.53 10.83 45.15 15.2 42.39 17.54 42.8 22.78 43.57 24.61 43.57 38.42 43.57 49.23 34 49.23 21.78 49.23 9.77 38.19-0.01 24.61-0.01 11.03-0.01 0.01 9.76 0.01 21.78 0.01 27.37 2.48 32.78 6.83 36.82 5.85 39.19 4.56 41.43 2.98 43.48 2.51 44.08 2.44 44.9 2.79 45.58ZM 3.93 21.78C 3.93 11.92 13.21 3.9 24.62 3.9 36.03 3.9 45.31 11.92 45.31 21.78 45.31 31.97 36.41 39.66 24.62 39.66 23.07 39.66 16.9 38.77 15.2 38.41 14.69 38.31 14.15 38.4 13.72 38.7 12.03 39.81 10.45 40.65 9.06 41.27 9.81 39.86 10.46 38.41 11 36.91 11.28 36.13 11.04 35.26 10.41 34.74 6.23 31.32 3.93 26.71 3.93 21.78Z"/>
</svg>