<?xml version="1.0" encoding="utf-8"?>
<svg xmlns="http://www.w3.org/2000/svg"
	xmlns:xlink="http://www.w3.org/1999/xlink"
	width="26px" height="21px">
<path fill="rgb(255,255,255)" fill-rule="evenodd" d="M 23.22 1.95C 21.91 0.69 20.16 0 18.31 0 16.45 0 14.71 0.69 13.4 1.95 13.4 1.95 12.75 2.57 12.75 2.57 12.75 2.57 12.1 1.95 12.1 1.95 10.79 0.69 9.05 0 7.19 0 5.34 0 3.59 0.69 2.28 1.95-0.43 4.55-0.43 8.78 2.28 11.38 2.28 11.38 11.99 20.7 11.99 20.7 12.14 20.85 12.34 20.94 12.55 20.98 12.62 20.99 12.69 21 12.76 21 13.03 21 13.31 20.9 13.51 20.7 13.51 20.7 23.22 11.38 23.22 11.38 25.93 8.78 25.93 4.55 23.22 1.95ZM 21.7 9.93C 21.7 9.93 12.75 18.52 12.75 18.52 12.75 18.52 3.8 9.93 3.8 9.93 1.93 8.13 1.93 5.21 3.8 3.41 4.7 2.54 5.91 2.06 7.19 2.06 8.47 2.06 9.68 2.54 10.59 3.41 10.59 3.41 11.99 4.76 11.99 4.76 12.39 5.14 13.11 5.14 13.51 4.76 13.51 4.76 14.91 3.41 14.91 3.41 15.82 2.54 17.03 2.06 18.31 2.06 19.59 2.06 20.8 2.54 21.7 3.41 23.57 5.21 23.57 8.13 21.7 9.93Z"/>
</svg>