<?xml version="1.0" encoding="utf-8"?>
<svg xmlns="http://www.w3.org/2000/svg"
	xmlns:xlink="http://www.w3.org/1999/xlink"
	width="40px" height="40px">
<path opacity="0.70" fill="rgb(65,65,65)" fill-rule="evenodd" d="M 20 0.02C 8.97 0.02 0.02 8.97 0.02 20 0.02 31.03 8.97 39.98 20 39.98 31.03 39.98 39.98 31.03 39.98 20 39.98 8.97 31.03 0.02 20 0.02ZM 24.16 30.99C 23.13 31.39 22.31 31.7 21.7 31.91 21.09 32.13 20.37 32.23 19.56 32.23 18.32 32.23 17.35 31.93 16.66 31.32 15.97 30.71 15.63 29.94 15.63 29.01 15.63 28.65 15.65 28.27 15.7 27.89 15.75 27.52 15.84 27.09 15.95 26.61 15.95 26.61 17.24 22.07 17.24 22.07 17.35 21.63 17.45 21.21 17.53 20.83 17.61 20.44 17.64 20.08 17.64 19.75 17.64 19.18 17.52 18.77 17.28 18.54 17.04 18.31 16.59 18.2 15.91 18.2 15.58 18.2 15.24 18.25 14.89 18.35 14.54 18.46 14.24 18.56 13.99 18.65 13.99 18.65 14.33 17.25 14.33 17.25 15.17 16.91 15.98 16.61 16.75 16.37 17.52 16.12 18.25 16 18.93 16 20.17 16 21.12 16.3 21.79 16.9 22.46 17.5 22.8 18.27 22.8 19.23 22.8 19.42 22.78 19.77 22.73 20.27 22.68 20.77 22.6 21.22 22.47 21.64 22.47 21.64 21.19 26.18 21.19 26.18 21.09 26.54 20.99 26.95 20.91 27.42 20.83 27.88 20.78 28.24 20.78 28.48 20.78 29.08 20.92 29.49 21.19 29.71 21.46 29.93 21.93 30.04 22.59 30.04 22.9 30.04 23.25 29.98 23.65 29.87 24.04 29.77 24.32 29.67 24.5 29.59 24.5 29.59 24.16 30.99 24.16 30.99ZM 23.93 12.59C 23.34 13.14 22.62 13.42 21.78 13.42 20.94 13.42 20.21 13.14 19.61 12.59 19.01 12.03 18.71 11.36 18.71 10.57 18.71 9.78 19.01 9.11 19.61 8.55 20.21 7.98 20.94 7.7 21.78 7.7 22.62 7.7 23.34 7.98 23.93 8.55 24.53 9.11 24.83 9.78 24.83 10.57 24.83 11.36 24.53 12.03 23.93 12.59Z"/>
</svg>