<?xml version="1.0" encoding="utf-8"?>
<svg xmlns="http://www.w3.org/2000/svg"
	xmlns:xlink="http://www.w3.org/1999/xlink"
	width="31px" height="31px">
<path fill="rgb(67,67,67)" fill-rule="evenodd" d="M 15.5-0C 6.94-0-0 6.94-0 15.5-0 24.06 6.94 31 15.5 31 24.06 31 31 24.06 31 15.5 31 6.94 24.06-0 15.5-0ZM 15.5 28.09C 8.56 28.09 2.91 22.44 2.91 15.5 2.91 8.56 8.56 2.91 15.5 2.91 22.44 2.91 28.09 8.56 28.09 15.5 28.09 22.44 22.44 28.09 15.5 28.09ZM 21.31 8.72C 21.21 8.72 21.12 8.73 21.03 8.76 21.03 8.76 14.09 10.86 14.09 10.86 12.55 11.33 11.33 12.55 10.86 14.09 10.86 14.09 8.76 21.03 8.76 21.03 8.73 21.12 8.72 21.21 8.72 21.31 8.72 21.85 9.15 22.28 9.69 22.28 9.79 22.28 9.88 22.27 9.97 22.24 9.97 22.24 16.91 20.14 16.91 20.14 18.45 19.67 19.67 18.45 20.14 16.91 20.14 16.91 22.24 9.97 22.24 9.97 22.27 9.88 22.28 9.79 22.28 9.69 22.28 9.15 21.85 8.72 21.31 8.72ZM 15.5 17.44C 14.43 17.44 13.56 16.57 13.56 15.5 13.56 14.43 14.43 13.56 15.5 13.56 16.57 13.56 17.44 14.43 17.44 15.5 17.44 16.57 16.57 17.44 15.5 17.44Z"/>
</svg>