<?xml version="1.0" encoding="utf-8"?>
<svg xmlns="http://www.w3.org/2000/svg"
	xmlns:xlink="http://www.w3.org/1999/xlink"
	width="62px" height="80px">
<path opacity="0.50" fill="rgb(65,65,65)" fill-rule="evenodd" d="M 57.6 32.31C 57.6 32.31 56.03 32.31 56.03 32.31 56.03 32.31 56.03 25.01 56.03 25.01 56.03 11.51 45.23 0.24 31.74 0 31.37-0.01 30.63-0.01 30.26 0 16.77 0.24 5.97 11.51 5.97 25.01 5.97 25.01 5.97 32.31 5.97 32.31 5.97 32.31 4.4 32.31 4.4 32.31 1.98 32.31-0 34.78-0 37.85-0 37.85-0 74.44-0 74.44-0 77.5 1.98 80 4.4 80 4.4 80 57.6 80 57.6 80 60.02 80 62 77.5 62 74.44 62 74.44 62 37.85 62 37.85 62 34.78 60.02 32.31 57.6 32.31ZM 35.98 56.11C 35.98 56.11 35.98 67.16 35.98 67.16 35.98 68.43 34.92 69.5 33.64 69.5 33.64 69.5 28.36 69.5 28.36 69.5 27.08 69.5 26.02 68.43 26.02 67.16 26.02 67.16 26.02 56.11 26.02 56.11 24.78 54.9 24.05 53.22 24.05 51.37 24.05 47.87 26.79 44.85 30.26 44.71 30.63 44.7 31.37 44.7 31.74 44.71 35.21 44.85 37.95 47.87 37.95 51.37 37.95 53.22 37.22 54.9 35.98 56.11ZM 45.67 32.31C 45.67 32.31 31.74 32.31 31.74 32.31 31.74 32.31 30.26 32.31 30.26 32.31 30.26 32.31 16.33 32.31 16.33 32.31 16.33 32.31 16.33 25.01 16.33 25.01 16.33 16.97 22.92 10.32 31 10.32 39.08 10.32 45.67 16.97 45.67 25.01 45.67 25.01 45.67 32.31 45.67 32.31Z"/>
</svg>