<?xml version="1.0" encoding="utf-8"?>
<svg xmlns="http://www.w3.org/2000/svg"
	xmlns:xlink="http://www.w3.org/1999/xlink"
	width="33px" height="30px">
<path fill="rgb(65,65,65)" fill-rule="evenodd" d="M 29.7 30C 29.7 30 3.3 30 3.3 30 1.48 30-0 28.5-0 26.67-0 26.67-0 6.67-0 6.67-0 4.83 1.48 3.33 3.3 3.33 3.3 3.33 8.58 3.33 8.58 3.33 8.58 3.33 11.55-0 11.55-0 11.55-0 21.45-0 21.45-0 21.45-0 24.42 3.33 24.42 3.33 24.42 3.33 29.7 3.33 29.7 3.33 31.51 3.33 33 4.83 33 6.67 33 6.67 33 26.67 33 26.67 33 28.5 31.51 30 29.7 30ZM 16.5 8.33C 11.88 8.33 8.25 12 8.25 16.67 8.25 21.33 11.88 25 16.5 25 21.12 25 24.75 21.33 24.75 16.67 24.75 12 21.12 8.33 16.5 8.33ZM 16.5 22C 13.58 22 11.22 19.61 11.22 16.67 11.22 13.72 13.58 11.33 16.5 11.33 19.42 11.33 21.78 13.72 21.78 16.67 21.78 19.61 19.42 22 16.5 22Z"/>
</svg>