<?xml version="1.0" encoding="utf-8"?>
<svg xmlns="http://www.w3.org/2000/svg"
	xmlns:xlink="http://www.w3.org/1999/xlink"
	width="33px" height="33px">
<path fill="rgb(65,65,65)" fill-rule="evenodd" d="M 32.9 5.71C 32.9 5.71 28.92 9.67 28.92 9.67 28.59 10 28.15 10.18 27.69 10.18 27.65 10.18 27.6 10.18 27.56 10.18 27.56 10.18 27.45 10.17 27.45 10.17 27.45 10.17 25.18 10 25.18 10 25.18 10 23.61 11.56 23.61 11.56 23.61 11.56 21.02 14.13 21.02 14.13 21.02 14.13 20.96 14.19 20.96 14.19 20.96 14.19 18.45 16.69 18.45 16.69 18.45 16.69 17.35 17.79 17.35 17.79 17.2 17.94 17 18.03 16.78 18.04 16.78 18.04 15.86 18.09 15.86 18.09 15.84 18.09 15.83 18.09 15.81 18.09 15.31 18.09 14.91 17.66 14.95 17.15 14.95 17.15 15.02 16.28 15.02 16.28 15.03 16.08 15.12 15.88 15.27 15.74 15.27 15.74 16.38 14.63 16.38 14.63 16.38 14.63 18.89 12.13 18.89 12.13 18.89 12.13 18.95 12.07 18.95 12.07 18.95 12.07 21.54 9.49 21.54 9.49 21.54 9.49 22.98 8.06 22.98 8.06 22.98 8.06 22.79 5.58 22.79 5.58 22.79 5.58 22.78 5.42 22.78 5.42 22.74 4.92 22.93 4.42 23.28 4.07 23.28 4.07 27.27 0.1 27.27 0.1 27.34 0.03 27.42-0 27.51-0 27.68-0 27.84 0.12 27.86 0.32 27.86 0.32 28.07 3 28.07 3 28.07 3 29.08 1.99 29.08 1.99 29.28 1.79 29.55 1.69 29.81 1.69 30.07 1.69 30.33 1.79 30.53 1.99 30.53 1.99 31.15 2.61 31.15 2.61 31.55 3.01 31.55 3.66 31.15 4.06 31.15 4.06 30.26 4.94 30.26 4.94 30.26 4.94 32.68 5.12 32.68 5.12 32.98 5.15 33.11 5.51 32.9 5.71ZM 21.49 15.14C 21.49 15.14 21.55 15.08 21.55 15.08 21.99 16.02 22.24 17.06 22.24 18.17 22.24 22.2 18.96 25.47 14.9 25.47 10.85 25.47 7.57 22.2 7.57 18.16 7.57 14.13 10.85 10.86 14.9 10.86 16.01 10.86 17.06 11.1 18.01 11.54 18.01 11.54 17.95 11.6 17.95 11.6 17.95 11.6 15.2 14.34 15.2 14.34 15.1 14.34 15 14.33 14.9 14.33 12.78 14.33 11.05 16.05 11.05 18.17 11.05 20.28 12.77 22 14.9 22 17.03 22 18.75 20.28 18.75 18.17 18.75 18.07 18.75 17.97 18.74 17.87 18.74 17.87 21.49 15.14 21.49 15.14ZM 20.67 8.9C 19 7.86 17.02 7.26 14.9 7.26 8.85 7.26 3.95 12.14 3.95 18.17 3.95 24.19 8.86 29.07 14.91 29.07 20.96 29.07 25.86 24.19 25.86 18.17 25.86 16.06 25.26 14.09 24.22 12.42 24.22 12.42 25.58 11.07 25.58 11.07 25.58 11.07 27.48 11.21 27.48 11.21 27.55 11.22 27.62 11.22 27.69 11.22 27.82 11.22 27.94 11.21 28.06 11.2 29.18 13.27 29.81 15.64 29.81 18.17 29.81 26.36 23.13 33 14.9 33 6.67 33-0 26.36-0 18.17-0 9.97 6.67 3.33 14.9 3.33 17.37 3.33 19.7 3.93 21.75 4.99 21.73 5.16 21.72 5.33 21.74 5.5 21.74 5.5 21.91 7.67 21.91 7.67 21.91 7.67 20.67 8.9 20.67 8.9Z"/>
</svg>