<?xml version="1.0" encoding="utf-8"?>
<svg xmlns="http://www.w3.org/2000/svg"
	xmlns:xlink="http://www.w3.org/1999/xlink"
	width="19px" height="28px">
<path opacity="0.60" fill="rgb(65,65,65)" fill-rule="evenodd" d="M 19 20.76C 19 14.31 14.64 9.59 11.52 7.89 15.72 2.89 14.47-0.18 12.39 1.81 10.25 3.85 8.8 1.1 4.82 0.08 1.38-0.8 6.02 6.12 7.31 7.98 4.2 9.76-0 14.43-0 20.76-0 22.37 0.27 23.62 0.76 24.6 0.19 25.58 0.01 26.46 0.4 26.86 0.76 27.24 1.55 27.09 2.44 26.54 4.17 27.75 6.69 28 9.5 28 12.34 28 14.89 27.74 16.63 26.49 17.55 27.08 18.37 27.26 18.75 26.86 19.15 26.44 18.94 25.5 18.3 24.47 18.75 23.51 19 22.3 19 20.76ZM 10.68 23.25C 9.37 23.25 8.16 22.69 7.41 21.65 7.05 21.17 6.79 20.57 6.67 19.82 6.67 19.82 5.52 19.82 5.52 19.82 5.52 19.82 5.8 18.83 5.8 18.83 5.8 18.83 6.53 18.83 6.53 18.83 6.53 18.76 6.53 18.67 6.53 18.59 6.53 18.45 6.54 18.31 6.54 18.17 6.54 18.17 5.52 18.17 5.52 18.17 5.52 18.17 5.8 17.17 5.8 17.17 5.8 17.17 6.69 17.17 6.69 17.17 6.87 16.41 7.19 15.76 7.61 15.24 8.38 14.34 9.45 13.81 10.7 13.81 11.52 13.81 12.23 14.01 12.71 14.23 12.71 14.23 12.06 15.83 12.06 15.83 11.71 15.68 11.44 15.5 10.85 15.5 10.21 15.5 9.62 15.72 9.21 16.26 9.02 16.48 8.87 16.8 8.78 17.17 8.78 17.17 12.11 17.17 12.11 17.17 12.11 17.17 11.83 18.17 11.83 18.17 11.83 18.17 8.58 18.17 8.58 18.17 8.56 18.31 8.56 18.46 8.56 18.6 8.56 18.69 8.56 18.74 8.56 18.83 8.56 18.83 12.11 18.83 12.11 18.83 12.11 18.83 11.83 19.82 11.83 19.82 11.83 19.82 8.75 19.82 8.75 19.82 8.84 20.24 8.99 20.57 9.19 20.81 9.62 21.31 10.25 21.52 10.92 21.52 11.53 21.52 11.88 21.31 12.16 21.16 12.16 21.16 12.76 22.72 12.76 22.72 12.31 22.98 11.53 23.25 10.68 23.25Z"/>
</svg>