<?xml version="1.0" encoding="utf-8"?>
<svg xmlns="http://www.w3.org/2000/svg"
	xmlns:xlink="http://www.w3.org/1999/xlink"
	width="40px" height="40px">
<path opacity="0.70" fill="rgb(65,65,65)" fill-rule="evenodd" d="M 34.15 5.87C 26.35-1.95 13.68-1.96 5.87 5.85-1.95 13.65-1.96 26.32 5.85 34.13 13.65 41.95 26.32 41.96 34.13 34.15 41.95 26.35 41.96 13.68 34.15 5.87ZM 20.01 32.12C 18.95 32.12 18.09 31.26 18.09 30.2 18.09 29.14 18.95 28.29 20.01 28.29 21.06 28.29 21.92 29.14 21.92 30.2 21.92 31.26 21.06 32.12 20.01 32.12ZM 23.12 20.58C 22.03 21.22 21.93 22.01 21.93 24.28 21.93 24.43 21.93 24.58 21.93 24.73 21.92 25.8 21.05 26.67 19.98 26.67 19.97 26.67 19.97 26.67 19.97 26.67 18.89 26.66 18.02 25.78 18.03 24.71 18.03 24.56 18.03 24.41 18.03 24.27 18.04 21.94 18.04 19.04 21.15 17.22 23.65 15.76 23.97 14.8 23.67 13.54 23.33 12.07 21.98 11.68 20.93 11.8 20.57 11.84 18.81 12.13 18.81 13.88 18.81 14.96 17.94 15.83 16.86 15.83 15.79 15.83 14.91 14.96 14.91 13.88 14.91 10.75 17.2 8.31 20.48 7.93 23.86 7.55 26.73 9.49 27.47 12.66 28.57 17.4 24.61 19.71 23.12 20.58Z"/>
</svg>