<?xml version="1.0" encoding="utf-8"?>
<svg xmlns="http://www.w3.org/2000/svg"
	xmlns:xlink="http://www.w3.org/1999/xlink"
	width="39px" height="40px">
<path opacity="0.70" fill="rgb(67,67,67)" fill-rule="evenodd" d="M 34.09 22.11C 34.09 21.51 34.29 20.9 34.29 20.1 34.29 19.3 34.29 18.69 34.09 18.09 34.09 18.09 38.27 14.67 38.27 14.67 38.67 14.27 38.67 13.87 38.47 13.47 38.47 13.47 34.49 6.43 34.49 6.43 34.29 6.23 33.9 6.03 33.3 6.23 33.3 6.23 28.33 8.24 28.33 8.24 27.33 7.44 26.14 6.83 24.94 6.23 24.94 6.23 24.15 1 24.15 1 24.35 0.4 23.75-0 23.35-0 23.35-0 15.39-0 15.39-0 15-0 14.4 0.4 14.4 0.8 14.4 0.8 13.6 6.23 13.6 6.23 12.41 6.63 11.42 7.44 10.22 8.24 10.22 8.24 5.45 6.23 5.45 6.23 4.85 6.03 4.45 6.23 4.06 6.63 4.06 6.63 0.08 13.67 0.08 13.67-0.12 13.87 0.08 14.47 0.47 14.87 0.47 14.87 4.65 18.09 4.65 18.09 4.65 18.69 4.45 19.3 4.45 20.1 4.45 20.9 4.45 21.51 4.65 22.11 4.65 22.11 0.47 25.53 0.47 25.53 0.08 25.93 0.08 26.33 0.28 26.73 0.28 26.73 4.25 33.77 4.25 33.77 4.45 33.97 4.85 34.17 5.45 33.97 5.45 33.97 10.42 31.96 10.42 31.96 11.42 32.76 12.61 33.37 13.8 33.97 13.8 33.97 14.6 39.2 14.6 39.2 14.6 39.6 15 40 15.59 40 15.59 40 23.55 40 23.55 40 23.95 40 24.55 39.6 24.55 39.2 24.55 39.2 25.34 33.97 25.34 33.97 26.54 33.37 27.73 32.76 28.72 31.96 28.72 31.96 33.7 33.97 33.7 33.97 34.09 34.17 34.69 33.97 34.89 33.57 34.89 33.57 38.87 26.53 38.87 26.53 39.07 26.13 39.07 25.53 38.67 25.33 38.67 25.33 34.09 22.11 34.09 22.11ZM 19.37 27.14C 15.59 27.14 12.41 23.92 12.41 20.1 12.41 16.28 15.59 13.07 19.37 13.07 23.15 13.07 26.34 16.28 26.34 20.1 26.34 23.92 23.15 27.14 19.37 27.14Z"/>
</svg>