<?xml version="1.0" encoding="utf-8"?>
<svg xmlns="http://www.w3.org/2000/svg"
	xmlns:xlink="http://www.w3.org/1999/xlink"
	width="18px" height="24px">
<path opacity="0.60" fill="rgb(65,65,65)" fill-rule="evenodd" d="M 16.02 4.23C 16.02 4.23 17.4 4.23 17.4 4.23 17.73 4.23 18 3.97 18 3.64 18 3.64 18 0.58 18 0.58 18 0.26 17.73-0 17.4-0 17.4-0 0.6-0 0.6-0 0.27-0-0 0.26-0 0.58-0 0.58-0 3.64-0 3.64-0 3.97 0.27 4.23 0.6 4.23 0.6 4.23 1.98 4.23 1.98 4.23 2.54 7.84 4.28 10.76 6.56 12 4.28 13.24 2.54 16.16 1.98 19.77 1.98 19.77 0.6 19.77 0.6 19.77 0.27 19.77-0 20.03-0 20.36-0 20.36-0 23.42-0 23.42-0 23.74 0.27 24 0.6 24 0.6 24 17.4 24 17.4 24 17.73 24 18 23.74 18 23.42 18 23.42 18 20.36 18 20.36 18 20.03 17.73 19.77 17.4 19.77 17.4 19.77 16.02 19.77 16.02 19.77 15.46 16.16 13.72 13.24 11.44 12 13.72 10.76 15.46 7.84 16.02 4.23ZM 10.06 14.14C 12.26 16.85 13.08 18.16 13.37 18.79 13.46 18.97 13.44 19.18 13.33 19.35 13.22 19.51 13.03 19.61 12.83 19.61 12.83 19.61 5.17 19.61 5.17 19.61 4.97 19.61 4.78 19.51 4.67 19.35 4.56 19.18 4.54 18.97 4.63 18.79 4.92 18.16 5.74 16.85 7.94 14.14 7.94 14.14 8.01 14.06 8.01 14.06 8.01 14.06 8.01 10.5 8.01 10.5 8.01 10.5 7.93 10.42 7.93 10.42 6.7 9.15 5.77 8.14 5.14 7.41 4.96 7.2 4.96 6.89 5.13 6.68 5.31 6.46 5.62 6.4 5.87 6.52 6.7 6.91 7.91 7.38 9 7.38 10.1 7.38 11.3 6.91 12.12 6.52 12.38 6.4 12.69 6.47 12.86 6.68 13.04 6.9 13.03 7.2 12.85 7.42 12.23 8.14 11.29 9.15 10.07 10.42 10.07 10.42 9.99 10.5 9.99 10.5 9.99 10.5 9.99 14.06 9.99 14.06 9.99 14.06 10.06 14.14 10.06 14.14Z"/>
</svg>