<?xml version="1.0" encoding="utf-8"?>
<svg xmlns="http://www.w3.org/2000/svg"
	xmlns:xlink="http://www.w3.org/1999/xlink"
	width="20px" height="20px">
<path fill="rgb(65,65,65)" fill-rule="evenodd" d="M 19.56 17.38C 19.56 17.38 15.43 13.26 15.43 13.26 16.43 11.82 16.92 10.22 16.92 8.46 16.92 7.32 16.7 6.22 16.26 5.17 15.81 4.13 15.21 3.23 14.45 2.47 13.7 1.71 12.8 1.11 11.75 0.67 10.7 0.22 9.61-0 8.46-0 7.32-0 6.22 0.22 5.17 0.67 4.13 1.11 3.23 1.71 2.47 2.47 1.71 3.23 1.11 4.13 0.67 5.17 0.22 6.22-0 7.32-0 8.46-0 9.61 0.22 10.7 0.67 11.75 1.11 12.79 1.71 13.7 2.47 14.45 3.23 15.21 4.13 15.81 5.17 16.26 6.22 16.7 7.32 16.92 8.46 16.92 10.22 16.92 11.82 16.43 13.26 15.43 13.26 15.43 17.38 19.54 17.38 19.54 17.67 19.85 18.03 20 18.46 20 18.88 20 19.24 19.85 19.54 19.54 19.85 19.24 20 18.88 20 18.46 20 18.04 19.85 17.68 19.56 17.38ZM 12.27 12.27C 11.21 13.32 9.94 13.85 8.46 13.85 6.98 13.85 5.71 13.32 4.66 12.27 3.6 11.21 3.08 9.94 3.08 8.46 3.08 6.98 3.6 5.71 4.66 4.66 5.71 3.6 6.98 3.08 8.46 3.08 9.94 3.08 11.21 3.6 12.27 4.66 13.32 5.71 13.85 6.98 13.85 8.46 13.85 9.94 13.32 11.21 12.27 12.27Z"/>
</svg>