<?xml version="1.0" encoding="utf-8"?>
<svg xmlns="http://www.w3.org/2000/svg"
	xmlns:xlink="http://www.w3.org/1999/xlink"
	width="9px" height="9px">
<path fill="rgb(146,146,146)" fill-rule="evenodd" d="M 0.17 8.78C 0.41 9.02 0.81 9.02 1.05 8.78 1.05 8.78 4.48 5.35 4.48 5.35 4.48 5.35 7.91 8.78 7.91 8.78 8.15 9.02 8.54 9.02 8.78 8.78 9.02 8.54 9.02 8.15 8.78 7.91 8.78 7.91 5.35 4.48 5.35 4.48 5.35 4.48 8.78 1.05 8.78 1.05 9.02 0.81 9.02 0.41 8.78 0.17 8.54-0.07 8.15-0.07 7.91 0.17 7.91 0.17 4.48 3.6 4.48 3.6 4.48 3.6 1.05 0.17 1.05 0.17 0.81-0.07 0.41-0.07 0.17 0.17-0.07 0.41-0.07 0.81 0.17 1.05 0.17 1.05 3.6 4.48 3.6 4.48 3.6 4.48 0.17 7.91 0.17 7.91-0.07 8.15-0.07 8.54 0.17 8.78Z"/>
</svg>